<svg xmlns="http://www.w3.org/2000/svg" version="1.1" xmlns:xlink="http://www.w3.org/1999/xlink" xmlns:svgjs="http://svgjs.dev/svgjs" viewBox="0 0 7.091178941504541 7.09117894150454"><g transform="matrix(1,0,0,1,2.169738182052192,2.644640568956024)"><rect width="7.091178941504541" height="7.091178941504541" x="-2.169738182052192" y="-2.6446405689560244" fill="#bd2949"></rect><g><path d=" M 0.8858434621732854 -1.228553352966041 C 0.8867865570356003 -1.2288858767707156 0.889615841622545 -1.2298834481847392 0.8911695075425003 -1.231491590656403 C 0.8880076991508811 -1.2314371141046943 0.8876751753462065 -1.2323802089670093 0.8870101277368576 -1.2342663986916391 C 0.8863450801275086 -1.236152588416269 0.8866231273804743 -1.2383713019455733 0.8859580797711254 -1.2402574916702032 C 0.8856255559664509 -1.2412005865325182 0.8852930321617763 -1.242143681394833 0.8834068424371465 -1.241478633785484 L 0.8796344629878868 -1.2401485385667859 C 0.8786913681255719 -1.2398160147621113 0.8768051784009421 -1.2391509671527623 0.8764726545962676 -1.240094062015077 C 0.876140130791593 -1.2410371568773921 0.8758076069869185 -1.2419802517397072 0.876418178044559 -1.2432558704066965 C 0.8622172785581266 -1.241429821728198 0.8558936617748881 -1.2413208686247807 0.8310406715500258 -1.2336183445655582 C 0.7956183896105559 -1.3070163141709954 0.6772660692260234 -1.5494574993264822 0.6395592682166951 -1.5902398136017033 C 0.6363974598250758 -1.5901853370499948 0.634511270100446 -1.589520289440646 0.6325706038241075 -1.5920170502229158 C 0.6297413192371628 -1.5910194788088925 0.6281331767654987 -1.5925731447288478 0.6262469870408689 -1.5919080971194988 C 0.6279096060642415 -1.5871926228079243 0.6330120807321993 -1.5847503385773627 0.6336771283415483 -1.5828641488527329 C 0.6292397012829396 -1.5834202433586646 0.6279096060642415 -1.5871926228079243 0.6213079420280372 -1.5848649561752026 C 0.6203103706140136 -1.5876942407621473 0.6193672757516987 -1.5873617169574727 0.6168160384177199 -1.5885828590727535 C 0.617481086027069 -1.586696669348124 0.6203648471657223 -1.584532432370528 0.6203648471657223 -1.584532432370528 C 0.6190892284987328 -1.5851430034281684 0.6265193697994121 -1.5760990551614025 0.6294031309380655 -1.5739348181838069 C 0.6256307514888059 -1.5726047229651088 0.6233575614077929 -1.576044578609694 0.621471371683163 -1.575379531000345 C 0.6167014208198799 -1.5768787203685917 0.6137631831295178 -1.5822047657378064 0.6080501374039198 -1.5833714313013787 L 0.6093802326226179 -1.579599051852119 C 0.6077720901509539 -1.5811527177720741 0.6094347091743264 -1.5764372434604996 0.6094347091743264 -1.5764372434604996 C 0.6094347091743264 -1.5764372434604996 0.6052753293686837 -1.5792120514957357 0.6033891396440538 -1.5785470038863867 C 0.6068834718403475 -1.5776583855757804 0.6097672329790009 -1.5754941485981848 0.6107648043930245 -1.57266486401124 C 0.6041631403568202 -1.5703371973785185 0.5993387129418283 -1.5749981951383845 0.5948468093315109 -1.5787160980359354 C 0.5958443807455345 -1.5758868134489905 0.5907963826292855 -1.575167289287933 0.59112890643396 -1.574224194425618 C 0.5892427167093301 -1.5735591468162688 0.5885776690999811 -1.575445336540899 0.5885776690999811 -1.575445336540899 C 0.5876345742376662 -1.5751128127362244 0.5835296709837321 -1.574725812379841 0.5835296709837321 -1.574725812379841 C 0.5689417711409165 -1.5770046669552769 0.5798719091323123 -1.5850998558653053 0.565005962036531 -1.5851599969114365 L 0.5602904877249564 -1.5834973778880639 C 0.489558373051338 -1.5585580925374753 0.49517162626984573 -1.4163311914663175 0.48505863655407944 -1.3608088766820003 C 0.47870669729872733 -1.27056114614158 0.4716352338823176 -1.1853614137174087 0.47149795830678676 -1.1015462530636442 C 0.4681125792139103 -1.0961112545910119 0.4623393924421808 -1.0824119730588029 0.465664630488926 -1.0729810244356537 C 0.46666220190294955 -1.070151739848709 0.468602868179288 -1.0676549790664387 0.47148662931794133 -1.0654907420888429 C 0.4701996816621065 -1.030045802171682 0.47044940644295885 -0.9421257382639834 0.4787625015598217 -0.9185483667061106 C 0.48020154988193703 -0.9084523704736125 0.48225116926169276 -0.8996319929081037 0.4852438835037634 -0.8911441391472695 C 0.4898992167692066 -0.8779408110748607 0.4977163584262691 -0.8647919595541605 0.5074196898079614 -0.8523081556428095 L 0.5160164966722128 -0.8489772531016415 L 0.5261669694564197 -0.8472544930321376 C 0.5330954928028758 -0.8306113093151437 0.5408093458509438 -0.8418138300650827 0.5535655325208381 -0.8357081194886787 C 0.5636615287533362 -0.837147167810794 0.5621078628333809 -0.8355390253391302 0.5715388114565301 -0.8388642633858753 C 0.5856852343912538 -0.843852120455993 0.612647985042003 -0.8576002140454881 0.6258513131144119 -0.8622555473109313 C 0.6252089234827537 -0.9362527589851637 0.6308958151287567 -1.0283866792502137 0.6320794741755971 -1.0881829914380137 C 0.6499438000078718 -1.0976627521184488 0.7335467189492245 -1.1282004655967957 0.7618395648186719 -1.1381761797370311 C 0.797648847114525 -1.0606733068776597 0.8336817001116353 -0.9885509559392117 0.8722657904427247 -0.915207462885483 C 0.8784203130764145 -0.9067740856763574 0.8794723610421467 -0.9007829926977935 0.8842967884571384 -0.8961219949379275 C 0.8892903100216789 -0.9000033274906044 0.8841333588020126 -0.9056074201127853 0.8859650719749338 -0.9094342761137536 C 0.8853000243655847 -0.9113204658383834 0.8881293089525295 -0.9123180372524069 0.8881293089525295 -0.9123180372524069 L 0.8854691185151333 -0.9198627961509263 C 0.8848040709057843 -0.9217489858755561 0.8850821181587503 -0.9239676994048605 0.8837520229400522 -0.92774007885412 C 0.8860252130210651 -0.924300223209535 0.8866902606304141 -0.9224140334849051 0.8873553082397632 -0.9205278437602753 C 0.8879658792974037 -0.9218034624272646 0.8873008316880546 -0.9236896521518945 0.8866357840787056 -0.9255758418765243 C 0.8859707364693565 -0.9274620316011541 0.8853056888600075 -0.929348221325784 0.8871918785846373 -0.930013268935133 L 0.890021163171582 -0.9310108403491566 C 0.890964258033897 -0.9313433641538311 0.8932374481149099 -0.927903508509246 0.8935699719195844 -0.926960413646931 L 0.8949000671382825 -0.9231880341976714 C 0.8962301623569806 -0.9194156547484118 0.8968952099663297 -0.917529465023782 0.8978383048286445 -0.9178619888284565 C 0.8997244945532743 -0.9185270364378055 0.8986724465875422 -0.9245181294163695 0.8970098275641696 -0.9292336037279441 C 0.8985634934841249 -0.9308417461996079 0.9034423974508254 -0.9230189400481228 0.9031098736461509 -0.9239620349104377 C 0.9059391582330956 -0.9249596063244613 0.9052741106237465 -0.9268457960490911 0.9071603003483764 -0.92751084365844 C 0.9081033952106913 -0.9278433674631146 0.9157571072126278 -0.9241799411172722 0.9189733921559557 -0.9210726092773616 C 0.9199164870182707 -0.9214051330820361 0.9175888203855491 -0.9280067971182405 0.9175888203855491 -0.9280067971182405 C 0.919475010110179 -0.9286718447275896 0.9201400577195279 -0.9267856550029597 0.9201400577195279 -0.9267856550029597 C 0.9248555320311025 -0.9284482740263323 0.9228059126513467 -0.937268651591841 0.9218083412373232 -0.9400979361787858 L 0.9181505793859035 -0.9504719796642498 C 0.921699388133906 -0.9464215529620243 0.9214758174326487 -0.9410410310411007 0.9279083873193045 -0.9348263673612794 C 0.9321222436766559 -0.928889750934424 0.9344499103093775 -0.9222880868982197 0.9392743377243693 -0.9176270891383538 C 0.9376117187009967 -0.9223425634499283 0.9342864806542516 -0.9317735120730775 0.9355076227695325 -0.9343247494070563 C 0.935175098964858 -0.9352678442693713 0.9332889092402281 -0.9346027966600222 0.9326238616308791 -0.9364889863846521 C 0.93195881402153 -0.9383751761092818 0.9288026701243335 -0.9563484550449739 0.9290807173772994 -0.9585671685742782 C 0.9320189550676614 -0.9532411232050633 0.9360092407237555 -0.9419239848572842 0.942332857506994 -0.9420329379607015 L 0.9390076194602488 -0.9514638865838507 L 0.9398417612191465 -0.9581200271717637 C 0.9411173798861359 -0.9575094561141233 0.9414499036908104 -0.9565663612518084 0.9417824274954849 -0.9556232663894935 C 0.9421149513001594 -0.9546801715271785 0.9427799989095085 -0.9527939818025487 0.9440556175764979 -0.9521834107449083 C 0.9453312362434874 -0.9515728396872679 0.9514312823254687 -0.9463012708697616 0.9517638061301432 -0.9453581760074466 C 0.9474409966693744 -0.9576184092175406 0.9435108520594115 -0.9838014946611009 0.9361953283565723 -1.004549581632029 C 0.9345327093331997 -1.0092650559436036 0.9332026141145016 -1.0130374353928633 0.9309294240334887 -1.0164772910374482 C 0.9082576642694903 -1.065741794579081 0.8823151430104553 -1.1212754383522436 0.8605864781087718 -1.170872465698551 C 0.8665230945356271 -1.1750863220559022 0.8712385688472017 -1.1767489410792749 0.8771751852740571 -1.1809627974366264 C 0.8777857563316975 -1.1822384161036157 0.8685783784098057 -1.1842936999777942 0.8682458546051312 -1.185236794840109 L 0.8729613289167057 -1.1868994138634816 C 0.8745149948366611 -1.1885075563351455 0.8779548504812461 -1.1907807464161586 0.8807841350681909 -1.1917783178301822 C 0.8807841350681909 -1.1917783178301822 0.8857231800810227 -1.1988214587744783 0.8847256086669991 -1.201650743361423 C 0.883395513448301 -1.2054231228106826 0.8830629896436265 -1.2063662176729975 0.8858922742305713 -1.207363789087021 C 0.8848947028165477 -1.210193073673966 0.8870589397941435 -1.2130768348126193 0.8889451295187732 -1.2137418824219683 C 0.8904987954387286 -1.2153500248936322 0.891109366496369 -1.2166256435606218 0.8907768426916944 -1.2175687384229366 C 0.8904443188870199 -1.2185118332852514 0.8888361764153561 -1.220065499205207 0.8885036526106815 -1.2210085940675217 C 0.888171128806007 -1.2219516889298365 0.8887816998636474 -1.223227307596826 0.8906678895882773 -1.2238923552061751 C 0.8893922709212878 -1.2245029262638156 0.8865085097826344 -1.2266671632414112 0.8858434621732854 -1.228553352966041 M 0.6313281314405216 -1.1685038198954845 C 0.6341914029940026 -1.2776679242339117 0.6399759187545775 -1.327422716740922 0.637616433547838 -1.4092972111183482 C 0.6608386233233455 -1.3464423791479236 0.6970950470217132 -1.2797005501303993 0.7322392817082173 -1.2040838669956577 C 0.7048895307010847 -1.1944406766600968 0.6866382045124269 -1.1890658192335959 0.6658901175414988 -1.1817502955307564 C 0.6555160740560348 -1.1780925336793369 0.6441989357082558 -1.1741022480232428 0.6313281314405216 -1.1685038198954845 M 1.4607104164229503 -1.6742299453474683 C 1.4707738890074147 -1.700070350134192 1.5069223549303512 -1.7389327794383194 1.5294156675395985 -1.7727418150333003 C 1.526424360163727 -1.7725136042030178 1.5216670587008907 -1.7691419454433424 1.5199010646139257 -1.7659984975139493 C 1.5196728537836433 -1.7689898048898207 1.5186757513250195 -1.76891373461306 1.5186757513250195 -1.76891373461306 C 1.5176786488663958 -1.7688376643362989 1.5116960341146533 -1.768381242675734 1.5098539697509274 -1.7662348972049648 C 1.5048684574578086 -1.7658545458211607 1.5032546039243653 -1.7607168929745203 1.5014125395606395 -1.758570547503751 C 1.5008800476233137 -1.7655502647141175 1.5047923871810478 -1.7668516482797845 1.5075554837266365 -1.770071166485938 L 1.5045641763507653 -1.7698429556556556 C 1.5041838249669612 -1.7748284679487745 1.5169179460987876 -1.7788086889225365 1.5199935126121527 -1.791078199533065 L 1.5027303008477726 -1.7807350124237562 C 1.4827882516752973 -1.7792136068885394 1.4752596648061393 -1.7595840276838408 1.4578443124882376 -1.7512350454917796 C 1.3820235813291677 -1.6802616932636085 1.322528652031149 -1.5924815509316224 1.2621887608280282 -1.502631133405628 L 1.2469115651201628 -1.4794016846109712 C 1.2175719276024408 -1.5353318702921281 1.162348570464166 -1.6544762399718516 1.1026230598057007 -1.6880301276241867 C 1.0952629912115304 -1.6924831479799796 1.0859087177001123 -1.6967840277822508 1.0769347955724986 -1.6960993952914034 C 1.0639724636103898 -1.6951104816935125 1.0672680520933044 -1.6913502826892999 1.0559113848039061 -1.68246061969918 C 1.048390986795481 -1.675869442733351 1.0301306725724773 -1.6654501853472814 1.025829792770206 -1.6560959118358636 C 1.0240637986832408 -1.6529524639064705 1.0176165734102005 -1.6454402547587785 1.01692375205862 -1.6413757746475226 C 1.0110932778603992 -1.6389251480697102 1.0057952955995042 -1.6294948042815314 1.0011140644134287 -1.6251260430632324 C 0.9908305698594149 -1.6153153478912494 0.9953514716312357 -1.6086399117879266 0.9888281760814345 -1.6021248050988581 C 0.9859890092590848 -1.5999023893513282 0.9862932903661281 -1.5959139795168333 0.9865975714731715 -1.591925569682338 L 0.9870539931337364 -1.5859429549305957 C 0.9881950472851488 -1.5709864180512394 0.9985382343944575 -1.5537232062868593 1.0155486687463562 -1.5279424940554305 C 1.0663517609717699 -1.453591664737015 1.1195130317767692 -1.3483306592012636 1.1467063238237218 -1.2942425378838327 C 1.1184504184322817 -1.243947371013546 1.0484870985837955 -1.096197129471346 1.053659877403532 -1.0283941622849309 L 1.054116299064097 -1.0224115475331883 C 1.0543445098943796 -1.0194202401573171 1.0546487910014228 -1.015431830322822 1.057640098377294 -1.0156600411531045 C 1.065616918046284 -1.0162686033671913 1.0744468884811091 -1.0319858430141557 1.0766014228126113 -1.0431821808892996 C 1.0766014228126113 -1.0431821808892996 1.0806659029238672 -1.0424893595377192 1.0808941137541497 -1.0394980521618478 C 1.0789759791136628 -1.0383488091497024 1.0790520493904239 -1.0373517066910787 1.0791281196671847 -1.036354604232455 C 1.0792802602207063 -1.0343603993152075 1.0804295032328517 -1.0324422646747207 1.0805816437863733 -1.0304480597574732 C 1.0932396946414389 -1.035425383189859 1.0898001544657356 -1.0542181893501885 1.0984697954863059 -1.0588912316755312 C 1.0986980063165885 -1.0558999242996598 1.0996869199144792 -1.042937592337551 1.100684022373103 -1.0430136626143118 C 1.104672432207598 -1.0433179437213553 1.118420033519514 -1.0734510394496173 1.1253997507298803 -1.073983531386943 C 1.126396853188504 -1.0740596016637038 1.1274700259238886 -1.073138569481841 1.128619268936034 -1.0712204348413543 L 1.1419783300034128 -1.0933006406238657 C 1.1459667398379079 -1.093604921730909 1.1498030091188811 -1.0959034077551997 1.151645073482607 -1.098049753225969 C 1.1534110675695721 -1.1011932011553618 1.1554052724868196 -1.1013453417088834 1.1551009913797763 -1.1053337515433785 C 1.1551009913797763 -1.1053337515433785 1.1568669854667413 -1.1084771994727713 1.1567148449132196 -1.1104714043900188 C 1.158709049830467 -1.1106235449435407 1.1620046383133817 -1.106863345939328 1.1620046383133817 -1.106863345939328 C 1.164995945689253 -1.1070915567696105 1.1856635716562403 -1.1648310513715614 1.2027828317278315 -1.1902068456369872 C 1.2183315530998087 -1.1572942756416704 1.3324705849645424 -0.9363366294626317 1.3526080895243682 -0.8827131186664987 L 1.3515431056497165 -0.8966725530872313 C 1.3545344130255879 -0.8969007639175137 1.3554554452074508 -0.8979739366528983 1.3553033046539291 -0.8999681415701458 C 1.3551511641004075 -0.9019623464873933 1.3538497805347405 -0.9058746860451274 1.3536976399812186 -0.907868890962375 C 1.353545499427697 -0.9098630958796224 1.3534694291509362 -0.9108601983382463 1.355387563791423 -0.9120094413503916 C 1.3559200557287487 -0.9050297241400254 1.3561482665590312 -0.9020384167641541 1.3591395739349024 -0.9022666275944367 C 1.3661192911452686 -0.9027991195317624 1.360601286914824 -0.9093984853583246 1.3705723115010617 -0.9101591881259328 C 1.384531745921794 -0.9112241720005845 1.3787855308610673 -0.9208148452030178 1.3800190330107065 -0.930938010342777 C 1.3822414487582364 -0.9280988435204274 1.388147993233218 -0.9295523676396161 1.3892972362453633 -0.9276342329991295 C 1.3886886740312767 -0.9356110526681195 1.4002138595956628 -0.9685833152187312 1.4029769561412515 -0.9718028334248849 C 1.4061964743474054 -0.9690397368792961 1.4124072999294301 -0.9665048511639899 1.4155507478588232 -0.9647388570770249 C 1.41524646675178 -0.9687272669115199 1.412026948545626 -0.9714903634571086 1.4117226674385828 -0.9754787732916036 C 1.4157110772730777 -0.975783054398647 1.4199276979378554 -0.973096028129819 1.4212290815035225 -0.9691836885720848 L 1.4207726598429575 -0.9751663033238274 C 1.4206205192894357 -0.9771605082410748 1.4205444490126748 -0.9781576106996985 1.4224625836531617 -0.979306853711844 C 1.4226907944834442 -0.9763155463359727 1.4246089291239308 -0.9774647893481182 1.427135625978504 -0.9706372126912736 C 1.429822652247332 -0.974853833356051 1.427143814839237 -0.9836756149301431 1.4296787005545433 -0.9898864405121681 C 1.4312843652272536 -0.9819856911199389 1.4325857487929208 -0.9780733515622048 1.4345799537101682 -0.9782254921157265 C 1.4365741586274159 -0.9783776326692482 1.4381880121608592 -0.9835152855158885 1.4394215143104985 -0.9936384506556477 C 1.4403343576316283 -0.9816732211521627 1.4447031188499273 -0.9769919899660873 1.454674143436165 -0.9777526927336956 C 1.4596596557292836 -0.9781330441174997 1.4592032340687187 -0.9841156588692422 1.4584425313011105 -0.9940866834554797 C 1.450683363071506 -1.0957911342351023 1.3156894387131668 -1.3271926043824096 1.300993868107025 -1.3752138518106043 C 1.3382400733475448 -1.4522704556494774 1.4838719838015793 -1.672988254337096 1.483491632417775 -1.6779737666302148 C 1.4853336967815007 -1.680120112100984 1.4862547289633636 -1.6811932848363687 1.4861786586866028 -1.6821903872949924 C 1.485181556227979 -1.6821143170182316 1.481269216670245 -1.6808129334525646 1.4793510820297584 -1.6796636904404192 C 1.4784300498478955 -1.6785905177050344 1.4866432692079008 -1.6892461747821192 1.491941251468796 -1.698676518570298 C 1.4939354563860434 -1.6988286591238198 1.4948564885679063 -1.6999018318592043 1.4947804182911455 -1.700898934317828 C 1.4974674445599736 -1.7051155549826056 1.4981602659115538 -1.7091800350938615 1.4980081253580322 -1.711174240011109 C 1.497703844250989 -1.7151626498456038 1.4739009592153416 -1.6722275515694878 1.4658480692695908 -1.672616091814025 L 1.460474016731935 -1.6641828504844698 C 1.4534942995215685 -1.663650358547144 1.459164444305535 -1.6550567878033347 1.451187624636545 -1.6544482255892479 C 1.4503508515921757 -1.665416352634109 1.469760408827325 -1.673917475379692 1.4689236357829558 -1.6848856024245533 C 1.4660844689606063 -1.6826631866770232 1.4634735129685392 -1.677449463553622 1.4607104164229503 -1.6742299453474683 M 1.8433601588837925 -0.9880705850993567 C 1.8439711210599858 -0.9920236503934369 1.854159265383283 -0.9924727775999936 1.8592533375449314 -0.992697341203272 C 1.8584178117654597 -0.9938383480708404 1.8656411571181968 -0.9947456969095421 1.865793897662245 -0.9957339632330622 C 1.8660993787503417 -0.9977104958801022 1.8670876450738618 -0.997557755336054 1.8680759113973817 -0.9974050147920056 C 1.8751465162060703 -0.9973240973071873 1.8764402636176871 -0.999147889410179 1.8803933289117674 -0.9985369272339857 C 1.8794050625882472 -0.998689667778034 1.8835108684263757 -0.9990669719253606 1.8844991347498958 -0.9989142313813124 L 1.8829808237350008 -1.0021845114399692 C 1.8879221553526009 -1.0014208087197274 1.8902041690877378 -1.003091860278671 1.896133767028858 -1.0021754170143808 C 1.896591988661003 -1.005140215984941 1.9013805797345549 -1.0033882469411792 1.9015333202786031 -1.0043765132646993 C 1.9015333202786031 -1.0043765132646993 1.9006977944991315 -1.0055175201322677 1.8988740023961397 -1.0068112675438845 C 1.90282706769022 -1.0062003053676911 1.9049563408813084 -1.0068830906031145 1.9069328735283484 -1.0065776095150178 C 1.8993322240282846 -1.0097760665144446 1.8914260934401244 -1.0109979908668312 1.883519962851964 -1.012219915219218 C 1.8696842343226834 -1.0143582828358946 1.8556957652493544 -1.0155083841290513 1.8446720951465858 -1.016200263790063 C 1.8078007600882475 -1.0198751312728112 1.7714594697212844 -1.020432459240951 1.7278230109423542 -1.026164776855558 C 1.7090459507954736 -1.0290668471924762 1.6887505796336977 -1.0352391975880515 1.691122605279241 -1.0571337972495407 L 1.692497270175676 -1.066028194161221 C 1.7054802164197844 -1.1500308316604246 1.76655638049699 -1.296419704808674 1.802574933270156 -1.378885842441806 C 1.8267970187947233 -1.443949584824492 1.860749027010443 -1.5064976554431748 1.8855820747112035 -1.575514463119941 C 1.889086012798727 -1.5850916452670447 1.8977649405327173 -1.6019639958261154 1.9002087892374906 -1.617776257002436 C 1.902194416310119 -1.6306237192081965 1.8999214970005707 -1.6421056109431105 1.885555723779915 -1.6473615180743955 C 1.882743665353403 -1.6488080060300607 1.8817553990298832 -1.648960746574109 1.88206088011798 -1.6509372792211492 C 1.8771195485003798 -1.6517009819413908 1.8754484969414362 -1.6539829956765275 1.8736247048384445 -1.655276743088144 L 1.8696716395443642 -1.6558877052643375 C 1.864730307926764 -1.656651407984579 1.861235464264829 -1.6602271691313326 1.8582706652942687 -1.6606853907634775 C 1.8543176000001886 -1.661296352939671 1.8523410673531484 -1.6616018340277678 1.8505172752501569 -1.6628955814393844 C 1.8493762683825885 -1.6620600556599125 1.8472469951915 -1.6613772704244893 1.8452704625444598 -1.661682751512586 C 1.8403291309268597 -1.6624464542328277 1.8350104951619328 -1.6673159627911978 1.831210170411901 -1.6689151912909113 L 1.8065035123239 -1.6727337048921196 C 1.8015621807062998 -1.6734974076123614 1.7981391601035948 -1.6709908302739462 1.7951743611330344 -1.6714490519060912 C 1.790080288971386 -1.671224488302813 1.7856690020451609 -1.668870651508446 1.7797394041040406 -1.6697870947727362 C 1.7785983972364723 -1.6689515689932644 1.7776101309129522 -1.6691043095373126 1.776621864589432 -1.669257050081361 C 1.7697040003247917 -1.6703262338896994 1.7473511790311576 -1.6697334605646825 1.741798885237364 -1.6665440979908441 C 1.7369293766789937 -1.6612254622259173 1.7281068028265434 -1.6565177886371836 1.7229318131800766 -1.6492226202252165 C 1.6769678685380685 -1.587519169811594 1.5720742895156434 -1.2951096332368333 1.5516070566131666 -1.1626819458851478 C 1.5503851322607798 -1.1547758152969874 1.5501514742319131 -1.1467169441647789 1.5490822904235748 -1.1397990799001385 C 1.5486240687914299 -1.1368342809295784 1.546342055056293 -1.1351632293706349 1.5460365739681965 -1.1331866967235948 C 1.5438172888667014 -1.1122803633856257 1.5386332047946463 -1.0918322516798016 1.5428735623256467 -1.0668919355629338 C 1.5437627223131718 -1.0333627036224824 1.584335275785547 -0.9947121162436177 1.6161843617414666 -0.9847303466724224 C 1.6221139596825869 -0.9838139034081324 1.6463623961384428 -0.9770305908363639 1.671069054226444 -0.9732120772351555 C 1.7145527724613256 -0.9664914932970287 1.7752234167689631 -0.9662214575658089 1.8171260953553081 -0.9820064354653647 C 1.8192553685463966 -0.9826892207007881 1.824349440708045 -0.9829137843040665 1.8273142396786053 -0.9824555626719215 C 1.8273142396786053 -0.9824555626719215 1.8292907723256453 -0.9821500815838248 1.8297489939577902 -0.9851148805543849 C 1.8317255266048305 -0.9848093994662882 1.831572786060782 -0.9838211331427682 1.8325610523843021 -0.9836683925987199 C 1.8338547997959187 -0.9854921847017116 1.8369723393105273 -0.9860222293930867 1.837277820398624 -0.9879987620401267 M 2.532619857841863 -1.362983241922176 C 2.513373363239497 -1.4023986252835121 2.4365443258574593 -1.4423147750846823 2.3617688860189645 -1.4707512586394342 C 2.337466868071454 -1.4799931157947284 2.299855367243094 -1.4964361996125013 2.268075805311734 -1.5085217051232707 L 2.253120717344035 -1.514209001834221 C 2.220630243323806 -1.5244251213490283 2.1795958571864245 -1.534680810225367 2.1717758242088676 -1.514117564269781 C 2.1691559567625047 -1.5044151782455346 2.173789852390879 -1.4940939859062103 2.179845572196991 -1.4875115655588103 C 2.114323620145817 -1.3658568336352075 2.054001833625837 -1.2550629616429443 1.991099749021026 -1.1431106157435877 C 1.9805677428233162 -1.1182293608425302 1.9523816424884812 -1.0722451923938714 1.9356752084000646 -1.028314621488756 L 1.9335424721334582 -1.0227064635008687 C 1.9184816431318914 -0.9802898225472811 1.9150321555120648 -0.9430863141756146 1.9479701913505187 -0.9284205105800138 C 1.9518406384777656 -0.9301582214406542 1.9543288307888063 -0.9367010724265226 1.9594894269584686 -0.9390180202407097 C 1.9711137353909358 -0.9217589515095507 1.9906106132132186 -0.9111348395380504 2.0130432451647673 -0.9026038944716248 L 2.0214554821465978 -0.8994047900717153 C 2.0489170351324866 -0.8900312577810989 2.1564858686233856 -0.8662416369054484 2.1571967807122547 -0.8681110229014107 C 2.1873703069182966 -0.8630554995562659 2.1552748583040335 -0.8827502241862069 2.207393885281867 -0.8650695277382774 C 2.2105929896817766 -0.8734817647201081 2.2316037974555876 -0.8612120476617577 2.2330256216333253 -0.8649508196536825 L 2.2376990866232314 -0.8631735394315105 C 2.236185156671703 -0.8648191445183604 2.235250463673722 -0.8651746005627948 2.2343157706757406 -0.8655300566072293 C 2.23338107767776 -0.8658855126516636 2.2324463846797786 -0.866240968696098 2.2318671477262315 -0.8675311177385137 L 2.2356059197181564 -0.866109293560776 C 2.2350266827646097 -0.8673994426031917 2.2406348407524965 -0.8652667063365852 2.2453083057424026 -0.8634894261144133 C 2.2499817707323087 -0.8617121458922412 2.2546552357222143 -0.8599348656700693 2.2553661478110834 -0.8618042516660316 C 2.2553661478110834 -0.8618042516660316 2.251982831863593 -0.8641607688417504 2.245795436922159 -0.8675836541507724 C 2.2476648229181215 -0.8668727420619036 2.248954971960537 -0.8674519790154503 2.250600577047387 -0.8689659089669783 L 2.2421883400655562 -0.8721650133668879 C 2.2447686381503873 -0.8733234872739815 2.248151954097878 -0.8709669700982627 2.2516669451806903 -0.8717699879609219 C 2.2544710241746335 -0.8707036198276187 2.2569196471241426 -0.8687025586963343 2.2597237261180863 -0.8676361905630311 C 2.2615931121140487 -0.8669252784741623 2.263462498110011 -0.8662143663852935 2.264752647152427 -0.8667936033388403 C 2.2595395145705055 -0.8784049447205805 2.2499688036815813 -0.8841843472053212 2.2359484087118635 -0.8895161878718373 L 2.223797399738108 -0.8941371164494845 C 2.21725454875224 -0.8966253087605252 2.2097770047683905 -0.8994689571160004 2.2019440047401067 -0.9013779124734944 C 2.19050390785522 -0.9078682270471039 2.1809331969662957 -0.9136476295318446 2.170651573988503 -0.9175576460206231 L 2.1187563279197814 -0.9330135004281559 L 2.106605318946026 -0.937634429005803 C 2.095389002970252 -0.9418999015390158 2.085462836036893 -0.9467446110257753 2.0764713621015156 -0.9512338644681005 C 2.0780248614145753 -0.9581321714984032 2.080868509770051 -0.9656097154822527 2.0833567020810912 -0.972152566468121 L 2.088688542747607 -0.9861729614378387 C 2.108949537280368 -1.039450462322766 2.1360692694819 -1.0826305517774812 2.162293878046982 -1.1347100093937834 C 2.2181516770167407 -1.1156074887681164 2.2545125981642165 -1.1071290801139495 2.289807151178389 -1.0958465924658392 C 2.3060523881885033 -1.0907385327084356 2.3107258531784094 -1.0889612524862635 2.3116605461763906 -1.0886057964418292 C 2.3116605461763906 -1.0886057964418292 2.310502072269297 -1.0911860945266603 2.308988142317769 -1.0928316996135103 C 2.3133061512632405 -1.090119726393357 2.3194935462046744 -1.0866968410843352 2.3251017041925612 -1.0845641048177288 L 2.3314207742693176 -1.0843007545470846 L 2.3308415373157705 -1.0855909035895004 C 2.3364496953036578 -1.083458167322894 2.347086774325885 -1.0804828438320968 2.348864054548057 -1.0851563088220026 C 2.353892975582397 -1.0843137215978118 2.3533137386288505 -1.0856038706402273 2.3719154928146837 -1.0838791268303143 C 2.3462182530002402 -1.1203983254239165 2.299391497327391 -1.143555504724411 2.2591996984141995 -1.1588401146350902 C 2.231158908474764 -1.1695037959681223 2.206145978438385 -1.1768762671274542 2.188966048430289 -1.182339782929292 L 2.3218397691670676 -1.4163944225704763 C 2.3521054011468996 -1.4059545221465568 2.4620832882257764 -1.3716199280224695 2.46991628825406 -1.3697109726649754 C 2.4680469022580978 -1.3704218847538443 2.46653297230657 -1.3720674898406942 2.465953735353023 -1.3733576388831097 C 2.4668884283510044 -1.3730021828386754 2.481488060274269 -1.3663801931297437 2.4899002972560993 -1.3631810887298341 C 2.490255753300534 -1.3641157817278153 2.4840683583591 -1.3675386670368375 2.4823306474984594 -1.371409114164084 C 2.4860694194903843 -1.3699872899863466 2.4909666653894025 -1.3659851677237778 2.4947054373813273 -1.36456334354604 C 2.4965748233772898 -1.3638524314571714 2.497509516375271 -1.3634969754127368 2.4987996654176867 -1.3640762123662837 C 2.4987996654176867 -1.3640762123662837 2.4982204284641396 -1.3653663614086993 2.4967064985126117 -1.3670119664955493 L 2.501379963502518 -1.3652346862733773 C 2.501735419546952 -1.3661693792713585 2.5030255685893676 -1.3667486162249052 2.503960261587349 -1.3663931601804709 C 2.50489495458533 -1.3660377041360365 2.5060534284924234 -1.3634574060512052 2.506988121490405 -1.363101950006771 C 2.506988121490405 -1.363101950006771 2.5105031125732173 -1.3639049678694302 2.5108585686176514 -1.3648396608674114 C 2.506185103627746 -1.3666169410895832 2.5022225507267084 -1.3702636073077175 2.4982599978256714 -1.373910273525852 C 2.498615453870106 -1.3748449665238331 2.5004848398660684 -1.3741340544349643 2.501419532864049 -1.37377859839053 L 2.50983176984588 -1.3705794939906204 C 2.513570541837805 -1.369157669812883 2.5148606908802202 -1.3697369067664296 2.5155716029690893 -1.371606292762392 C 2.51650629596707 -1.3712508367179574 2.526077006855995 -1.3654714342332168 2.532619857841863 -1.362983241922176 M 2.518336112601501 -1.361996012511936 C 2.5165984017408607 -1.3658664596391827 2.5156637087428795 -1.3662219156836173 2.5147290157448983 -1.3665773717280516 C 2.5145973406095763 -1.3634178366896736 2.5164667266055387 -1.362706924600805 2.518336112601501 -1.361996012511936" fill="#ffffff" fill-rule="nonzero"></path></g><g><path d=" M -0.9078259419795937 1.6864265948802173 L -1.0469823845022714 1.73849686226262 Q -1.065836969766418 1.7454311261043862 -1.0791923009951887 1.7503428963256373 Q -1.0849398950601976 1.752902657635859 -1.0892607375165646 1.754491759766264 Q -1.0528558523472915 1.8534783324030337 -1.0377229235768795 1.8849253421153263 Q -1.0217637994566875 1.9174062995765913 -1.021312521274851 1.9234834089321147 Q -1.0208612430930148 1.9295605182876379 -1.0229518395296744 1.9347887313546663 Q -1.0271330324029935 1.945245157488723 -1.0355783153858924 1.9483511298345142 Q -1.0440235983687915 1.9514571021803053 -1.0528568709643713 1.946233018212151 Q -1.061690143559951 1.9410089342439967 -1.0658163060618628 1.9273646753551525 Q -1.0844019240121914 1.8610668125788399 -1.1068099823842412 1.8104446456577492 Q -1.1292180407562913 1.7598224787366588 -1.1325114716860543 1.753898776557035 Q -1.1358049026158175 1.7479750743774116 -1.136628690842103 1.742703866556448 Q -1.1374524790683886 1.7374326587354845 -1.135754686491399 1.732348909498493 Q -1.13239968896786 1.7208585356154638 -1.1191482339386856 1.716876836943589 Q -1.0034609610435838 1.6810188479580002 -0.8657832082293464 1.6303842755301023 Q -0.7281054554151087 1.5797497031022047 -0.6924844741999805 1.5668721284137093 Q -0.6568634929848522 1.553994553725214 -0.6274032035096231 1.5431597664724541 Q -0.5644507097628714 1.5191154821171902 -0.5390515722450189 1.5075446181213945 Q -0.5136524347271664 1.4959737541255989 -0.5074625058261839 1.4970417532826434 Q -0.5012725769252017 1.498109752439688 -0.49732665163677847 1.501563811915834 Q -0.4924100671685384 1.5064446230006223 -0.49065861451637094 1.5160569670931732 Q -0.48734076067251353 1.533565976009559 -0.47737275639997445 1.56066944232677 Q -0.45815906700508036 1.6129123556628429 -0.44899215002011217 1.631168791791622 Q -0.439825233035144 1.6494252279204011 -0.4395703567831425 1.655574569190943 Q -0.4393154805311412 1.6617239104614847 -0.44115773693816773 1.6664148558388066 Q -0.4445533220921474 1.6765823543127898 -0.453587810864551 1.679905022403636 Q -0.46262229963695456 1.6832276904944825 -0.47111470647266274 1.6783241784709793 Q -0.4796071133083709 1.6734206664474764 -0.4834962862500072 1.6610270510526597 Q -0.48738545919164333 1.6486334356578431 -0.4914596835937569 1.634524140994311 Q -0.4955339079958705 1.6204148463307786 -0.500526853478003 1.6044137642839162 Q -0.5114834036220849 1.5709848485815492 -0.5224041803827149 1.5473533284322103 Q -0.5565781161739807 1.5599216816454118 -0.5905037119356137 1.5719527671689066 Q -0.6307141694519621 1.5862952739729903 -0.6721030385473197 1.6010711722671844 Q -0.7833071184642917 1.6406315607585522 -0.8359428356600345 1.6599897139834832 Q -0.8178848569054348 1.7090901964421985 -0.8070046677752454 1.7313988411824912 Q -0.7950093556352023 1.755527041391096 -0.7977321526153015 1.7638863348661247 Q -0.8004549495954008 1.7722456283411534 -0.8090966345081345 1.7754238326019631 Q -0.8307008467899692 1.783369343253987 -0.84479501356442 1.742621618047932 Q -0.8474359501355231 1.734228273164831 -0.8498918352461486 1.7275506075504456 L -0.8612006016194595 1.6955890310871613 L -0.8697239675916306 1.672413603366648 L -0.9078259419795937 1.6864265948802173 M -0.225061801390519 2.091039672792086 Q -0.4030923587656339 2.199450767597381 -0.47636202124878546 2.2452871311559996 Q -0.549631683731937 2.291123494714619 -0.5837605178619362 2.312720801807347 Q -0.6178893519919353 2.3343181089000744 -0.6485364428998074 2.35398412968498 Q -0.7133787923902802 2.3955358498774846 -0.736774004539027 2.4114057224993477 Q -0.7601692166877736 2.4272755951212104 -0.7661136418385373 2.4280322767258746 Q -0.7720580669893008 2.4287889583305384 -0.7774710965192502 2.427238501416234 Q -0.7996999992687901 2.420903824853811 -0.7992660179089931 2.397923217681978 Q -0.7990036382201666 2.3888729015202337 -0.792263778698972 2.3807071386859864 Q -0.7202542245706687 2.292215554682882 -0.640446167331518 2.181072997179768 Q -0.5606381100923674 2.069930439676654 -0.5271624394094541 2.0247984352868147 Q -0.46637417293507966 1.942833038246587 -0.4139636827924802 1.8774632056244709 L -0.906047491207659 2.1917209914673497 Q -0.9170468109993185 2.1986019951976994 -0.9259205483077213 2.196254444852173 Q -0.9347942856161241 2.193906894506647 -0.9393446267926456 2.186633150773453 Q -0.9438949679691672 2.1793594070402587 -0.941924928895578 2.169487643882039 Q -0.9399548898219887 2.1596158807238193 -0.9280239686331141 2.152645758036404 Q -0.8282296789553761 2.095152763587064 -0.7033341768049193 2.0170200760682557 L -0.49292783369349596 1.8853931337425363 Q -0.4379312347351981 1.850988115090788 -0.3986356925027733 1.8254180809816762 Q -0.38550747210627634 1.8172052700777106 -0.3735942682394948 1.8208602740315984 Q -0.3616810643727133 1.8245152779854863 -0.3561318678159797 1.8333856971723086 Q -0.34370166752889664 1.8532554361507902 -0.35851153468411157 1.8714064346655774 Q -0.3733214018393266 1.8895574331803644 -0.3977525630732619 1.9211325101800758 Q -0.4221837243071972 1.9527075871797872 -0.4519354779924356 1.9915605555646687 Q -0.4816872316776739 2.0304135239495498 -0.5147197961664438 2.07428097514877 Q -0.5477523606552136 2.1181484263479904 -0.5804301083765107 2.161793909684941 Q -0.6131078560978076 2.2054393930218916 -0.6437903816498659 2.2463556670894036 Q -0.6744729072019242 2.287271941156916 -0.6994800235352067 2.320688355976989 Q -0.7244871398684891 2.3541047707970613 -0.7423558499649662 2.37762506889366 Q -0.7431983324051155 2.3786457892479413 -0.7436859980777919 2.379444541739953 Q -0.6759176545512604 2.333100306595379 -0.5950648205763698 2.280051646573796 Q -0.49647114822783467 2.215904593438747 -0.4475736882995729 2.183587234034884 Q -0.3986762283713111 2.151269874631021 -0.3485369097568942 2.118175627709215 Q -0.2983975911424773 2.08508138078741 -0.24947826624014657 2.052009828370068 Q -0.23812412968101415 2.044906856777449 -0.2287400321954709 2.0476756483430503 Q -0.21935593470992765 2.050444439908651 -0.2146946096022715 2.0578955920255817 Q -0.21003328449461534 2.065346744142512 -0.2118704746630009 2.0746417226709895 Q -0.2137076648313866 2.083936701199467 -0.225061801390519 2.091039672792086 M 0.01616697324347849 2.3595817733859965 Q -0.12654622574368057 2.4961820347002908 -0.15983338644974743 2.528588343278068 L -0.2836856150227709 2.6491631670854736 Q -0.3742506828897275 2.7373316823151024 -0.43578711821794514 2.757520420732206 Q -0.49940687265144096 2.7785691341175687 -0.5469945149773662 2.7296879882158667 Q -0.5834881057181065 2.6922024468802057 -0.570905497738502 2.6367288516539396 Q -0.5579833274044154 2.5780041424186915 -0.49260854331502285 2.5143593201668404 Q -0.459321382608956 2.481953011589063 -0.4479305801703801 2.4822537302448335 Q -0.43653977773180414 2.482554448900604 -0.4292410595836561 2.490051557167736 Q -0.421942341435508 2.4975486654348686 -0.42340688719260267 2.5074440140223975 Q -0.4248714329496972 2.5173393626099267 -0.4356434620400894 2.526074017573426 Q -0.4529891395912799 2.5394560453374626 -0.47697988604610286 2.5628119434115364 Q -0.5009706325009258 2.58616784148561 -0.5151762945097654 2.6081750943966853 Q -0.529381956518605 2.630182347307761 -0.5337707916624237 2.6484736228293926 Q -0.5416329377484868 2.6829966615816563 -0.5188609371262648 2.7063876393751087 Q -0.488206320904043 2.7378754940970635 -0.4438806578461067 2.721007621481606 Q -0.39836339307018853 2.703563787019055 -0.3174104949946799 2.6259212971322787 Q -0.2808404778605936 2.5914872186825386 -0.2247621080224449 2.5368928069343912 Q -0.16868373818429627 2.482298395186244 -0.14439707520116773 2.4589464649145496 Q -0.1201104122180392 2.435594534642856 -0.09851080480393914 2.413982393319578 Q -0.053212399660942156 2.3687144695915414 -0.015939451003613492 2.3260026639540037 Q -0.007218998599462179 2.3157606517323184 0.0020924525362152613 2.3166254288280426 Q 0.011403903671892479 2.3174902059237663 0.0175348269163369 2.3237877768681576 Q 0.023665750160781318 2.3300853478125485 0.02471451099309452 2.3401623809844576 Q 0.02576327182540772 2.350239414156367 0.01616697324347849 2.3595817733859965 M -0.1087938997771295 3.100670083567897 Q -0.18144003891137925 3.051947332876902 -0.165322960229411 2.9539054333742176 Q -0.14920588154744277 2.8558635338715335 -0.05082788732926111 2.709180898873192 Q 0.02680214128366426 2.5934337011138373 0.11876556414651179 2.5412214685001624 Q 0.1638741113595618 2.516041558136183 0.20695081614903632 2.511924323408844 Q 0.25002752093851077 2.507807088681506 0.2863505905056356 2.5321684640270035 Q 0.32267366007276055 2.556529839372501 0.337080401411575 2.59365706012233 Q 0.3514871427503896 2.630784280872159 0.3452025005239505 2.678475250327032 Q 0.3328705305423427 2.7720005860888404 0.24358015021480373 2.906636256936699 Q 0.14962730570630822 3.0482237114337676 0.05592593693115805 3.099270328002203 Q -0.03614776064287975 3.149392834258892 -0.1087938997771295 3.100670083567897 M 0.29597686137456225 2.5978378147297088 Q 0.28651730446582835 2.5766271430218755 0.2667047210655784 2.5633391201061495 Q 0.24689213766532847 2.5500510971904236 0.22402590060523359 2.549581310456809 Q 0.2011596635451386 2.5491115237231945 0.17600266233238204 2.5584440408718483 Q 0.1508456611196255 2.567776558020502 0.12450418318162892 2.5856375839261063 Q 0.09816270524363246 2.6034986098317106 0.07232794166154821 2.6269908694300566 Q 0.020073510843648945 2.6755988685656384 -0.018508380253765888 2.7331248782628554 Q -0.05709027135118075 2.7906508879600724 -0.07885520598378049 2.832494916508749 Q -0.1006201406163802 2.8743389450574255 -0.11197272013964626 2.9077961740270104 Q -0.12332529966291236 2.9412534029965953 -0.12542904449097275 2.9673072713166526 Q -0.1275327893190331 2.99336113963671 -0.12306023383149295 3.012990894974581 Q -0.11422120630538041 3.048651665327861 -0.08293817988393315 3.0696327541421646 Q 0.009520542650566566 3.131643527748886 0.14333037527520237 2.974960440441415 Q 0.17395883406054546 2.939061053723458 0.20100112631009304 2.8987407085580372 Q 0.2280434185596406 2.858420363392616 0.24589201346957756 2.8265482420552157 Q 0.26374060837951463 2.7946761207178152 0.2771193943797263 2.7630817817895017 Q 0.2904981803799379 2.731487442861188 0.29830087004300276 2.70144468146728 Q 0.3061035597060675 2.671401920073371 0.3057699889946819 2.6452252032554564 Q 0.30543641828329615 2.6190484864375416 0.29597686137456225 2.5978378147297088 M 0.5048551230976964 3.240244884204247 L 0.4639474413381286 3.3549979412122792 Q 0.4571985530388359 3.372580914914226 0.4379974401061163 3.372383701188927 Q 0.43309947868570337 3.3722969039337176 0.4272384874517212 3.37004727450062 Q 0.421377496217739 3.3677976450675224 0.41720963186229987 3.358800974685965 Q 0.41304176750686084 3.3498043043044072 0.4195380887453215 3.3363832176039354 Q 0.42603440998378217 3.322962130903464 0.43284647632340506 3.309886385872998 Q 0.43965854266302795 3.2968106408425326 0.44622985154925854 3.2831941877675948 Q 0.4615629056171299 3.251422463926074 0.4686117445075023 3.233058024726263 Q 0.4756605833978747 3.2146935855264522 0.48036901069729704 3.201258696767219 Q 0.48507743799671943 3.1878238080079866 0.4896950831382893 3.17345747845535 Q 0.49365363396001244 3.161976253440778 0.4982712791015823 3.1476099238881408 Q 0.49797502321216797 3.1098391882250263 0.4965933663311668 3.066720565254879 Q 0.4952629327825674 3.0106209643147612 0.49386932119363774 2.9500141347031628 Q 0.4871502807086451 2.703561102492073 0.49389916900793773 2.6859781287901265 Q 0.4976485513964337 2.676209810066823 0.5057591720635135 2.6725984482659384 Q 0.5138697927305932 2.6689870864650542 0.5232019876260383 2.672120773161308 Q 0.5325341825214835 2.675254459857562 0.5351391158811942 2.6836512290569603 Q 0.5377440492409047 2.6920479982563585 0.5345099083311686 2.730256850198653 Q 0.5312757674214326 2.768465702140948 0.5300408264357722 2.8300809526450417 Q 0.5288058854501119 2.8916962031491353 0.5298363684076316 2.9485772695871173 Q 0.5309695882309323 3.0238779834599545 0.5355957835797429 3.109933665084544 Q 0.5476057619308584 3.0961632518114235 0.5611470822575374 3.0807391253847225 Q 0.5837264791420574 3.055783452785467 0.6080167898665244 3.02812224751253 Q 0.6323071005909915 3.000461042239593 0.6575880452465499 2.9713868812664677 Q 0.6828689899021085 2.942312720293342 0.7066481891509473 2.9142311857026293 Q 0.7644444665707845 2.8454107083571927 0.7819917212494343 2.8218857784195297 Q 0.799538975928084 2.798360848481867 0.8084428717004677 2.790346842226115 Q 0.8173467674728515 2.7823328359703634 0.8275058189450872 2.7862321936543992 Q 0.8462609908938302 2.7934310078403115 0.8392121520034578 2.8117954470401223 Q 0.8338130413640237 2.8258618260016797 0.7779802448449654 2.88781488367196 Q 0.7221474483259073 2.94976794134224 0.7053638721837179 2.969551313596204 Q 0.6885802960415284 2.9893346858501677 0.673432646091516 3.0066078918049164 Q 0.6582849961415036 3.0238810977596646 0.6409153208759159 3.043439507070319 Q 0.6235456456103282 3.0629979163809726 0.6051399453347228 3.0835035609951134 Q 0.5867342450591173 3.104009205609254 0.5701302407813114 3.1227407583431175 Q 0.5517541370745497 3.14258531618609 0.539353425974502 3.1562057541636706 Q 0.5107041596237502 3.225006306995893 0.5048551230976964 3.240244884204247 M 1.181656596510487 2.858926719708908 Q 1.193330428194641 2.8599517833032966 1.3320415934765788 2.868770728298432 Q 1.3512200312434033 2.870454761346356 1.3570263852729396 2.8856694109909986 Q 1.35832798137268 2.8899850742488233 1.357852058989571 2.895405067530752 Q 1.357376136606462 2.9008250608126804 1.350628071114085 2.905904374163404 Q 1.343880005621708 2.9109836875141273 1.3268227900697105 2.909065778976481 Q 1.3097655745177132 2.9071478704388354 1.293787274780172 2.904904562876254 Q 1.277808975042631 2.9026612553136735 1.2640871399718203 2.9010362220887096 Q 1.2395619277512377 2.89804242153738 1.2220145708109214 2.8969217487059455 Q 1.210259025090114 2.9925210622273855 1.2004110927011664 3.104673230907294 Q 1.1898675814445983 3.2247469282300214 1.1861771401245873 3.2691674855928645 Q 1.1824866988045764 3.3135880429557076 1.1797694307585984 3.354102750118269 Q 1.1719410637458874 3.4576093732773177 1.1687987017360957 3.507749908737377 Q 1.1679709042173436 3.5219618851965064 1.1604876266424882 3.528237052106547 Q 1.1530043490676327 3.534512219016587 1.1448743591447397 3.5337983354419236 Q 1.1367443692218466 3.53308445186726 1.1295987477774243 3.5259448780243825 Q 1.122453126333002 3.518805304181505 1.1235880181696465 3.5058807048169056 L 1.1279669288546732 3.4512272400233854 L 1.1670981449076243 3.053432289222555 Q 1.1768728584684012 2.9421139656629434 1.1782377019953436 2.8930777602269884 Q 1.1561774157215658 2.890720538720319 1.125559021760309 2.890132664292833 Q 1.0894840251030384 2.8894857900423867 1.0733409830021132 2.8891186340004733 Q 1.0571979409011882 2.88875147795856 1.051076321150094 2.88191188893097 Q 1.044954701399 2.8750722999033793 1.0456685849736633 2.8669423099804865 Q 1.0463824685483267 2.8588123200575932 1.0537488083783213 2.85147654204014 Q 1.0611151482083159 2.8441407640226855 1.0758609849724547 2.8460657820629365 Q 1.0906068217365936 2.8479908001031875 1.1014101988863656 2.8493595674295538 Q 1.1122135760361376 2.85072833475592 1.1203069565449453 2.851859140890732 Q 1.128400337053753 2.8529899470255438 1.1346175660418931 2.853956010796972 Q 1.1408347950300333 2.8549220745683996 1.14727879000529 2.855697981766796 Q 1.153722784980547 2.8564738889651924 1.162061236183514 2.857206077246899 L 1.181656596510487 2.858926719708908 M 1.7120400397097697 3.0560135129764996 L 1.704451195930737 2.9903218434464662 Q 1.702726095405715 2.9745116627966794 1.700543280585627 2.9564358652176477 Q 1.6983604657655391 2.938360067638616 1.695859869269789 2.9173718683609393 Q 1.693359272774039 2.8963836690832627 1.690786839732241 2.8766663406532667 Q 1.688214406690443 2.8569490122232706 1.6950224788962545 2.849890998560187 Q 1.7018305511020657 2.8428329848971026 1.7101516988124796 2.8419250372523543 Q 1.7184728465228938 2.8410170896076057 1.7260187541175465 2.846508893583499 Q 1.7335646617121994 2.852000697559392 1.734601320558276 2.865359931278292 Q 1.753139949531712 3.09699813835808 1.7674401249364986 3.2280562147971006 Q 1.7904565977308695 3.4389973092560964 1.7987712879157671 3.4881903564573977 Q 1.8010561189184058 3.501413398029585 1.7949175301731128 3.508819373004834 Q 1.78877894142782 3.5162253479800825 1.7806658224101664 3.5171105969337124 Q 1.7725527033925128 3.517995845887342 1.7654001544922617 3.512250615836451 Q 1.758247605592011 3.50650538578556 1.7572109467459343 3.4931461520666605 Q 1.7439394375319066 3.3560816827014 1.7340577700949174 3.2578013449540397 Q 1.6966654837256756 3.258513252889004 1.6325926463554876 3.2655044497535664 Q 1.5660234646721753 3.2727680309115534 1.5343956224272182 3.280008145813521 Q 1.5485216892484392 3.4056120788585353 1.5626397634143423 3.5118503852584104 Q 1.5645539344136978 3.525534881598356 1.5578366569723614 3.5334250100324813 Q 1.5511193795310247 3.541315138466607 1.5425902031278504 3.542245784802474 Q 1.5340610267246761 3.543176431138341 1.526700449131665 3.5374538997785687 Q 1.5193398715386537 3.5317313684187965 1.5176751302866371 3.508757417450683 Q 1.5160103890346206 3.48578346648257 1.5121665734352079 3.4428387610094626 Q 1.5083227578357952 3.3998940555363557 1.5038887762672961 3.3515406040514795 Q 1.4958684015020411 3.270318619110468 1.4866073355256078 3.1854429124642447 Q 1.4773462695491746 3.100567205818022 1.4733475594395897 3.065849112818162 Q 1.469348849330005 3.0311310198183024 1.4658003725701025 3.002468457599611 Q 1.4596492831318992 2.957670452110088 1.4494583383844997 2.898998879806285 Q 1.4471735073818608 2.8857758382340974 1.4539588808965533 2.878509795878253 Q 1.4607442544112461 2.8712437535224087 1.4698975168927015 2.8702450111131856 Q 1.479050779374157 2.869246268703962 1.4872434717382095 2.8748780052992595 Q 1.4954361641022622 2.880509741894557 1.4967150276052608 2.899947205085744 Q 1.4979938911082593 2.9193846682769315 1.5001580035648874 2.946935250485773 Q 1.5023221160215157 2.974485832694614 1.5055151505238695 3.0076077922257474 Q 1.5087081850262236 3.0407297517568805 1.5131117311032531 3.081087318152388 Q 1.5168268355013375 3.1189939376170095 1.5300828711146635 3.2404826941890543 Q 1.557996632381404 3.241647040816592 1.6299745600764852 3.2337932936895184 Q 1.6990400860729218 3.226257328238107 1.7297904161646 3.218691950715094 Q 1.7280653156395782 3.202881770065307 1.7264764072612686 3.1883197615720826 L 1.7120400397097697 3.0560135129764996 M 2.05513155074951 3.218433578303806 L 2.100726171298581 3.35984418192966 Q 2.106783165452372 3.3789986128095153 2.1110735363113067 3.392566334682746 Q 2.113365397627697 3.398425906954497 2.1147534587879404 3.4028154640311303 Q 2.2153142209071803 3.371016244723729 2.2474259252779647 3.3573502871861565 Q 2.280608594200536 3.342906716870642 2.2867000527199766 3.342736296149108 Q 2.2927915112394164 3.3425658754275736 2.2979177040765557 3.3448954574355065 Q 2.3081700897508335 3.3495546214513725 2.3108831183822187 3.3581342102829743 Q 2.3135961470136044 3.366713799114576 2.30797008915249 3.3752966442720718 Q 2.3023440312913754 3.383879489429567 2.2885239346617365 3.3873717590018413 Q 2.221439193238913 3.4028788306639988 2.1698371010340454 3.422927495055231 Q 2.1182350088291773 3.4429761594464634 2.112165666981402 3.4459927841060525 Q 2.106096325133627 3.449009408765642 2.1007927236464883 3.449589124384866 Q 2.0954891221593495 3.4501688400040895 2.0904891167004145 3.4482383086394868 Q 2.0791657664743495 3.4443567574015628 2.075799684280279 3.4309357114152546 Q 2.0453172916292854 3.3137172648197337 2.001088615568793 3.1738500143324577 Q 1.9568599395083004 3.033982763845182 1.9456395071025059 2.9978055869346867 Q 1.9344190746967116 2.9616284100241907 1.9249550213314135 2.9316996117744174 Q 1.9038407521539134 2.8677048329546446 1.8934540382866976 2.8417989020641983 Q 1.8830673244194818 2.815892971173752 1.8844197683278074 2.8097589074739284 Q 1.8857722122361331 2.803624843774104 1.8894046450435429 2.7998424787538787 Q 1.8945070930460697 2.7951563135775066 1.9041900073554827 2.7938502064521367 Q 1.921833446022784 2.791343691070882 1.9493679404125757 2.782636761974808 Q 2.0024416759755077 2.7658538406736795 2.0211016015969063 2.75753897429247 Q 2.0397615272183045 2.7492241079112607 2.045916079426847 2.749253212511391 Q 2.0520706316353894 2.7492823171115224 2.056671586450994 2.751339035854329 Q 2.0666715973688636 2.7552000985835345 2.0695739070675554 2.7643782633801317 Q 2.0724762167662467 2.773556428176729 2.0671861158593603 2.7818135606343555 Q 2.0618960149524743 2.7900706930919816 2.0493361639419287 2.7933839258513093 Q 2.0367763129313827 2.796697158610637 2.022494071969312 2.80011609023945 Q 2.008211831007241 2.8035350218682638 1.9919974305176202 2.807784415709762 Q 1.958098614343262 2.817187003548905 1.933988411347802 2.8270058742142026 Q 1.9449667132515478 2.86172328018394 1.9554197771337591 2.8961678228885512 Q 1.9678918390672342 2.9369971758864475 1.980742463135321 2.9790236808143344 Q 2.0151301518588505 3.091934524368096 2.0320392605381827 3.145407310574358 Q 2.0819205909544722 3.1296338882988612 2.104707454641737 3.119794529124845 Q 2.1293633841674495 3.1089251824164785 2.1375881556990515 3.1120307490394072 Q 2.1458129272306534 3.1151363156623355 2.148589049551141 3.1239154298156024 Q 2.155529355352359 3.1458632151987698 2.1141747643329287 3.1580624138671185 Q 2.105668513444788 3.1603132981660718 2.098884652508173 3.162458483595539 L 2.0664353630202132 3.1722806105867307 L 2.0428913750637245 3.179725665900765 L 2.05513155074951 3.218433578303806 M 2.6530478317991633 2.9932910755425435 Q 2.7079914016865483 3.0708699061984035 2.7481026607467802 3.128146720923397 Q 2.756262740090304 3.1398119954042785 2.7537556511294565 3.1497193885853703 Q 2.7512485621686094 3.159626781766462 2.7440765846926225 3.16433588909194 Q 2.736904607216636 3.1690449964174183 2.7279213479765043 3.167182826303619 Q 2.7189380887363725 3.1653206561898197 2.71181699961004 3.154475226835889 L 2.5390731601583596 2.8913861018631124 Q 2.4494852646980467 2.7549436035394654 2.3716271747984408 2.6508538484969404 Q 2.3604702648106852 2.6361494735229414 2.3660111705335396 2.6239997410897864 Q 2.3682515608241497 2.619023935094071 2.372105222713107 2.615742605624817 Q 2.3759588846020643 2.612461276155562 2.387546288924489 2.5988448307869554 Q 2.4169194385629162 2.5650387136490123 2.452429473383045 2.5417228895740847 Q 2.4879395082031737 2.518407065499157 2.516373235860557 2.511002863356006 Q 2.544806963517941 2.503598661212856 2.571816811242007 2.50889538899812 Q 2.6293138973637387 2.5202096846127 2.673188994884046 2.5870315235353063 Q 2.7296982827897818 2.6730952532471455 2.714431060701638 2.7977757246200072 Q 2.712084995788814 2.817841358459096 2.7081098080843105 2.83847598994823 Q 2.8113091246838264 2.9209199277481876 2.9291599789462346 2.9997518694820764 Q 2.949960918214502 3.0131308064524083 2.938910809155458 3.0329033229657063 Q 2.936090853752581 3.0377589889540797 2.9304932127957137 3.0414343897934772 Q 2.917898520642762 3.0497040416821215 2.903232517594742 3.0388057750170834 Q 2.8706739683020093 3.0136202886340855 2.8419373785115694 2.989680421134845 Q 2.8132007887211294 2.9657405536356047 2.7858477579765744 2.9431453101030214 Q 2.7369162126856867 2.9021741886799477 2.699381857397239 2.8747483120063397 Q 2.683180193407621 2.933952391078207 2.6530478317991633 2.9932910755425435 M 2.630175581635828 2.960744220018529 Q 2.6643187312583603 2.892263201227491 2.6763038012222933 2.8052861645386207 Q 2.691638326006671 2.687571041975179 2.6420204146748056 2.612002889057467 Q 2.5905648029232413 2.533635915661321 2.520706635123926 2.5469603700106336 Q 2.4823496630921187 2.554120957369443 2.4417917990021776 2.593768893401844 Q 2.42250763836406 2.612439014924622 2.4131077870211373 2.6286245682192004 Q 2.477703182034847 2.736916451902282 2.524564542737165 2.808286374102344 Q 2.5744121666214927 2.8842043795798604 2.5783773500170235 2.889862090540399 Q 2.5823425334125543 2.8955198015009374 2.585618579150698 2.9001279547820635 Q 2.5888946248888414 2.9047361080631893 2.5925753094593498 2.9095792576278883 Q 2.5962559940298577 2.914422407192587 2.6029830117860473 2.9235238574786075 Q 2.609710029542237 2.932625307764628 2.620287374417726 2.9472095427312848 Q 2.6247720529218523 2.9532771762552987 2.630175581635828 2.960744220018529 M 2.804017723384185 2.4336957351844686 Q 2.8192605227434586 2.4506658183014807 2.927747161676078 2.569239554034806 Q 3.036233800608697 2.687813289768132 3.1597265603384637 2.815348248840368 Q 3.1690758993529875 2.824946876195925 3.167857370746359 2.8357053214215826 Q 3.1666388421397307 2.8464637666472408 3.1599999480817447 2.8525378883583117 Q 3.153361054023759 2.8586120100693826 3.1440283294831626 2.8586417587839357 Q 3.1346956049425656 2.8586715074984888 3.120622277460718 2.8420496128734936 Q 3.10654894997887 2.8254277182484984 3.081174930941541 2.796454392817948 Q 3.055800911904212 2.767481067387398 3.027036685400239 2.7348023127151815 Q 2.9700732669700662 2.6700623749110264 2.9196439309037316 2.6149441149412382 Q 2.869214594837397 2.55982585497145 2.840949731708068 2.529242929487076 Q 2.8126848685787396 2.4986600040027023 2.788335844771951 2.4732870338888113 Q 2.734861271728547 2.416700432509643 2.701031566500976 2.3846853503353245 Q 2.6910646559461746 2.375651757557542 2.691163031635439 2.3667690774315275 Q 2.6912614073247036 2.357886397305513 2.6983634800378975 2.3513884996611116 Q 2.705465552751092 2.3448906020167097 2.716020286131618 2.3440264356761213 Q 2.7265750195121443 2.3431622693355334 2.736564980545756 2.3550111187640024 Q 2.746554941579368 2.366859968192471 2.7562623853240926 2.3784000318508007 Q 2.7659698290688173 2.3899400955091306 2.7773723765468645 2.4033328737882935 Q 2.7887749240249113 2.4167256520674565 2.804017723384185 2.4336957351844686 M 3.1463114549667055 2.085409265021527 Q 3.1947981314641707 2.106279381895236 3.243453574758613 2.1442737788156814 Q 3.2921090180530546 2.182268175736126 3.327397517400416 2.223099886195769 Q 3.362686016747777 2.263931596655412 3.386555252630709 2.3064664618567523 Q 3.410424488513641 2.349001327058093 3.4228586989369725 2.3918995002073884 Q 3.4352929093603044 2.4347976733566843 3.435838047495946 2.475580533712784 Q 3.4369598477575716 2.5598259480124685 3.3895634475313896 2.6205215518509584 Q 3.3820933627131327 2.630087706803764 3.3738013079689226 2.628126180871388 Q 3.3655092532247126 2.6261646549390116 3.356932700508404 2.619467337515747 L 3.3285641030621536 2.59731467219264 Q 3.3081123235078795 2.58134414602947 3.2787902629653827 2.558712441583286 Q 3.2494682024228854 2.5360807371371017 3.213548793637074 2.508297250057637 Q 3.177629384851263 2.480513762978172 3.138813447636462 2.4509994302575606 Q 3.099997510421661 2.4214850975369493 3.0605218383825283 2.3914555865530103 Q 3.021046166343396 2.361426075569071 2.9849053075661716 2.3342661841736865 Q 2.909469472451069 2.278545423153937 2.8648558632283807 2.2479553644666024 Q 2.841136933542792 2.232088640574277 2.855241287803629 2.2085865457301934 Q 2.8753517006730562 2.173313026318989 2.891322226836226 2.152861246764715 Q 2.994873057765168 2.0202545470741007 3.1463114549667055 2.085409265021527 M 3.3724657238976707 2.578495333217591 Q 3.400253826127044 2.5401899591162103 3.398426139542005 2.4792890197088955 Q 3.3949376166234564 2.3661136782005507 3.299824333467101 2.2546698871881876 Q 3.2670821179914844 2.2163575517598546 3.2177669398727113 2.1778479765760816 Q 3.168451761753938 2.1393384013923087 3.12259940940389 2.1229149628874815 Q 3.0767470570538418 2.106491524382654 3.040035638214391 2.1086229515984387 Q 2.971054863754464 2.1126374471981606 2.92674953310825 2.1693746420906623 Q 2.9074303482334476 2.1941146980030903 2.9006015376398895 2.2137398924815033 Q 2.932517168039645 2.242910512340224 2.9938725067024667 2.2908220908297348 Q 3.0674329396154194 2.348264467190814 3.106614883382637 2.3783301173150044 Q 3.145796827149854 2.4083957674391945 3.1834582284220754 2.437008538198982 Q 3.2211196296942965 2.4656213089587693 3.255647290550943 2.491786982967748 Q 3.29017495140759 2.517952656976727 3.317739257468506 2.5384152309488464 Q 3.352488368316566 2.5639573092737447 3.3724657238976707 2.578495333217591 M 3.5091059536508533 2.032930100722735 L 3.642169790044064 2.0990348939314205 Q 3.6601105950333306 2.108074081773661 3.672818665234061 2.1144768398285816 Q 3.678613483206587 2.116927819258672 3.6827249176832937 2.118999299805852 Q 3.7301806538550575 2.0248100736122026 3.7428207820007207 1.9922809003445556 Q 3.7556520926159145 1.9584421103516996 3.7597835894856737 1.9539626412166835 Q 3.7639150863554325 1.9494831720816674 3.76916215142472 1.9474403520959904 Q 3.7796562815632955 1.9433547121246364 3.7876922671314044 1.9474035150123066 Q 3.7957282526995133 1.9514523178999768 3.7979436257897436 1.9614727909489518 Q 3.8001589988799744 1.9714932639979266 3.7930087072838345 1.983824701371897 Q 3.7572658474715857 2.0426743383779513 3.7355850984556067 2.0936122416121643 Q 3.7139043494396273 2.1445501448463777 3.7118257037520714 2.151001204209583 Q 3.7097470580645155 2.1574522635727886 3.706458685970741 2.16165355717196 Q 3.7031703138769667 2.1658548507711317 3.6982970155782886 2.1680859871701887 Q 3.687611702970183 2.173481243866752 3.6756540323668223 2.166519268683992 Q 3.5704601818613133 2.1064893236580224 3.4394549287626064 2.0404844207683275 Q 3.3084496756638995 1.9744795178786327 3.2747179411304095 1.9572499990824368 Q 3.24098620659692 1.9400204802862406 3.212953698801191 1.9258967492827397 Q 3.1524006159062656 1.8963253402697768 3.126603543593819 1.8856711326330544 Q 3.1008064712813725 1.8750169249963322 3.0973598763637966 1.869765560842819 Q 3.0939132814462202 1.864514196689306 3.0937421613697422 1.859272863732319 Q 3.0939505401761744 1.8523481472795131 3.0997768847663534 1.8445047772090097 Q 3.1103025415225822 1.8301247877370614 3.123296374045803 1.8043348805649906 Q 3.148342457025345 1.754623900073898 3.155420085835922 1.7354604714257365 Q 3.1624977146464994 1.7162970427775748 3.1668160949015633 1.711911731849249 Q 3.1711344751566273 1.7075264209209227 3.175819457041925 1.7056690512924755 Q 3.1855660536392807 1.7012067784943612 3.1941626893633046 1.7055380560021014 Q 3.202759325087328 1.7098693335098418 3.2049761312056337 1.719421881581517 Q 3.207192937323939 1.7289744296531921 3.2007944783532443 1.7402787249220235 Q 3.194396019382549 1.7515830201908549 3.186870527987724 1.764194066128745 Q 3.1793450365928995 1.776805112066635 3.1710648465164795 1.791379150064264 Q 3.1541249674807292 1.8222106095553405 3.144318183704217 1.8463257314000432 Q 3.176835892747263 1.8627092593641044 3.2087915186063185 1.8792782376853954 Q 3.24672741279513 1.8988602786207665 3.2857846072957706 1.9190072687962776 Q 3.3906218873675718 1.9732337976812706 3.4407066346292745 1.9984681970741924 Q 3.464246186301776 1.9517473507479774 3.4731142540675384 1.9285652128017237 Q 3.4825501371295915 1.9033259245890415 3.490516325968288 1.8996068862479214 Q 3.4984825148069847 1.895887847906801 3.5067053837603983 1.9000308090011615 Q 3.527262556143933 1.9103882117370623 3.5071184320245723 1.9485095562831034 Q 3.502790020572982 1.9561703420525276 3.499588641545522 1.9625243771528929 L 3.4839612452911313 1.9926111691589001 L 3.4728505769017106 2.0146634086248736 L 3.5091059536508533 2.032930100722735 M 3.853407904964525 1.6991509893318706 Q 3.86082124086059 1.698104497379004 3.8699483100139638 1.7011636997734452 Q 3.879075379167337 1.7042229021678863 3.8844259800143237 1.7099890092065229 Q 3.88977658086131 1.7157551162451594 3.891749739801185 1.7230376406471164 Q 3.8954344346927177 1.7357493554770143 3.89051310910166 1.7504320319411368 Q 3.8834636427144695 1.7714639739032583 3.86148965262579 1.7738097915746078 Q 3.8540763167297247 1.7748562835274742 3.845742905763601 1.7720630987325499 Q 3.8219331601461053 1.764082570747051 3.8221079177532133 1.7385393161213971 Q 3.8218550839875967 1.7313919978248484 3.8239167203838504 1.725241146873662 Q 3.8259783567801047 1.7190902959224754 3.830090643044362 1.7134060744232682 Q 3.8342029293086197 1.7077218529240608 3.8400987491885394 1.7039596671043988 Q 3.845994569068459 1.7001974812847371 3.853407904964525 1.6991509893318706 M 3.5129043722721827 1.5995878960262044 L 3.6256038348616637 1.6373623951575644 Q 3.7013981917440257 1.6627670759114017 3.7361927351002113 1.6708981911418588 Q 3.749290292495484 1.6739639854532498 3.753775237491217 1.682971229640765 Q 3.7582601824869495 1.6919784738282801 3.7556000064917834 1.6999150557007787 Q 3.752939830496617 1.7078516375732775 3.745323685442439 1.711478617287531 Q 3.737707540388261 1.7151055970017846 3.71509047935729 1.7062005993349278 Q 3.6833463491729455 1.6942363992736298 3.608544065024646 1.6691642405191882 Q 3.533741780876346 1.6440920817647466 3.4828146480925963 1.6274637844893078 Q 3.431887515308847 1.610835487213869 3.3828115191934636 1.5952690630308468 Q 3.2802944069328226 1.5626731178674609 3.2030347559474692 1.5429570532241308 Q 3.1871593948968218 1.5389601973144316 3.1824793313127517 1.5279012046060876 Q 3.1777992677286817 1.5168422118977436 3.180991478922881 1.5073183136507453 Q 3.184183690117081 1.4977944154037468 3.194582033437933 1.4924515051265352 Q 3.2049803767587854 1.4871085948493237 3.2250834544282485 1.4956123688112557 Q 3.245186532097712 1.5041161427731875 3.279245132443927 1.5170768101798477 Q 3.313303732790142 1.530037477586508 3.3523237954594935 1.5439990069498306 Q 3.430363920798197 1.5719220656764756 3.5129043722721827 1.5995878960262044" fill="#ffffff" fill-rule="nonzero"></path></g><g clip-path="url(#SvgjsClipPath1012)"><g clip-path="url(#SvgjsClipPath1004f49d4e10-b632-4369-94e2-44a2d0c51bb0)"><path d=" M 2.7456805812476555 0.4948526773832458 L 2.726254787207329 0.44823077168646563 C 2.7140873070638203 0.4190729869945231 2.685585515500112 0.40008711616257014 2.6539908333773186 0.40009365405453906 L 2.3421679874420174 0.40009365405453906 L 2.247680925229875 0.1090564077423861 C 2.226572303412101 0.044038169567322455 2.1659950353559614 0.000009067694305093376 2.0976360920624 0 L 0.6540664853377505 0 C 0.5857115173368102 0.000021293915361361407 0.5251406761808858 0.04404572455354815 0.5040216521702755 0.1090564077423861 L 0.409534589958135 0.40009365405454006 L 0.097711744022832 0.40009365405454006 C 0.06612803599376808 0.4000923464935648 0.037640253344453686 0.41907909350943345 0.025486641780904134 0.44823077168646563 L 0.006060847740578024 0.49485267738324673 C -0.002257917481923051 0.5147839689544561 -0.001968566808575005 0.537267278002579 0.006860372884690431 0.5569778858677943 C 0.01568931257795782 0.5766884937330106 0.032272576737827685 0.5918732973000469 0.05268275343735912 0.5989360818513096 L 0.25836306073632237 0.6699956364508189 L 0.09600227414728506 0.8137465123492262 C 0.05932484814378449 0.8462655203534505 0.03833583053024242 0.8929392118121341 0.03834651743560079 0.9419567530153723 L 0.03834651743560079 1.8018589520044115 L 0.5103933126155026 1.8018589520044115 L 0.5103933126155026 1.565913257590621 L 2.2412315616084864 1.565913257590621 L 2.2412315616084864 1.8019366551805733 L 2.71327835678839 1.8019366551805733 L 2.71327835678839 0.9420344561915346 C 2.7132890436937345 0.8930169149882514 2.6923000260801806 0.8463432235295731 2.6556226000766725 0.8138242155253577 L 2.493300665075747 0.6700733396269808 L 2.6989421207866315 0.5990137850274709 C 2.719393182245622 0.5919771492227657 2.736019672222837 0.576789622354956 2.744873821193447 0.5570573086473914 C 2.7537279701640545 0.537324994939828 2.7540200035056577 0.5148079823082579 2.7456805812476572 0.4948526773832458 Z M 0.6632354601247832 1.151056000065434 L 0.3002450726872656 1.151056000065434 C 0.2781979109755027 1.1510663072950371 0.2570502161817304 1.1423153306210092 0.24145687404723531 1.1267292750949884 C 0.2258635319127422 1.1111432195689688 0.21710267178531661 1.089999617282043 0.21710267419467327 1.0679524531609235 L 0.21710267419467327 0.9894722452380087 C 0.2170993950688646 0.9643368579402622 0.22846733489054605 0.9405492059425153 0.24802686143952757 0.9247627362123967 C 0.26758638798851103 0.9089762664822781 0.2932376665066763 0.9028857530606725 0.31780599049972125 0.9081947229732878 L 0.6808352295253177 0.9867137824842824 C 0.7190772872243887 0.9949966477147731 0.7463686341865586 1.0288236817976977 0.7463778586173755 1.0679524531609224 C 0.7463780388252997 1.113758393745475 0.7093131816188893 1.1509275121537872 0.6635074212415664 1.1510560000654333 Z M 0.5135402912500362 0.5860373546085331 L 0.6530174924595706 0.1564553452007799 L 2.0985296785882563 0.1564553452007799 L 2.238006879797791 0.5860373546085331 L 0.5136179944261979 0.5860373546085331 Z M 2.5344444968531574 0.9894722452380087 L 2.5344444968531574 1.0679524531609224 C 2.5344444968531574 1.089992884164153 2.5256889697281397 1.1111305964950986 2.51010403150548 1.126715534717757 C 2.4945190932828223 1.1423004729404158 2.4733813809518757 1.151056000065434 2.4513409499486443 1.151056000065434 L 2.088311710923046 1.151056000065434 C 2.0662645492112848 1.1510663072950371 2.0451168544175125 1.1423153306210092 2.0295235122830175 1.1267292750949884 C 2.013930170148522 1.1111432195689688 2.0051693100210985 1.089999617282043 2.0051693124304553 1.0679524531609235 C 2.0051824967312872 1.0288119316788935 2.03249329336031 0.9949808441485467 2.070750793110639 0.9867137824842722 L 2.4337411805481115 0.9081947229732878 C 2.4583209146643212 0.9028586792275564 2.483995008822668 0.9089365331462788 2.5035736259063146 0.9247262274172848 C 2.5231522429899633 0.940515921688291 2.5345305729628693 0.9643199765138167 2.5345222000293193 0.9894722452380083 Z" fill="#ffffff" transform="matrix(1,0,0,1,0,0)" fill-rule="nonzero"></path></g></g><g><path d=" M -0.3720523374177782 0.9009489017962461 A 1.7479036261178562 1.7479036261178562 0 0 1 3.123754914817934 0.9009489017962461 A 1.7479036261178562 1.7479036261178562 0 0 1 -0.3720523374177782 0.9009489017962461 Z M -0.32205233741777795 0.9009489017962463 A 1.6979036261178564 1.6979036261178564 0 0 0 3.073754914817935 0.9009489017962463 A 1.6979036261178564 1.6979036261178564 0 0 0 -0.32205233741777795 0.9009489017962463 Z" fill="#ffffff" fill-rule="nonzero"></path></g><g><path d=" M -1.6038066035934806 0.9009489017962462 A 2.9796578922935586 2.9796578922935586 0 0 1 4.355509180993637 0.9009489017962462 A 2.9796578922935586 2.9796578922935586 0 0 1 -1.6038066035934806 0.9009489017962462 Z M -1.5538066035934808 0.9009489017962462 A 2.9296578922935588 2.9296578922935588 0 0 0 4.305509180993637 0.9009489017962462 A 2.9296578922935588 2.9296578922935588 0 0 0 -1.5538066035934808 0.9009489017962462 Z" fill="#ffffff" fill-rule="nonzero"></path></g><g transform="matrix(0.45850120682456424,-0.888693784911551,0.888693784911551,0.45850120682456424,-0.49429475082804986,-0.630536621052562)"><g clip-path="url(#SvgjsClipPath1013)"><path d=" M -0.7645575555942393 0.3000467247794596 C -0.751592767264498 0.3000467247794596 -0.7450061771305694 0.2911982625981172 -0.7328655906234881 0.27514505891585117 L -0.6110359172290916 0.11236285745803104 C -0.604449327095163 0.10371810424990296 -0.6013632532250891 0.09548779343555563 -0.6013632532250891 0.08663698977176254 C -0.6013632532250891 0.07778852759042021 -0.604449327095163 0.06955587529362217 -0.6110359172290916 0.0609134635679448 L -0.7328655906234881 -0.10186990863110076 C -0.7450061771305694 -0.1179217074238963 -0.751592767264498 -0.1267708720499739 -0.7645575555942393 -0.1267708720499739 C -0.7777283943796458 -0.1267708720499739 -0.7843149845135743 -0.1179217074238963 -0.7964555710206556 -0.10186990863110076 L -0.9182859468597874 0.0609134635679448 C -0.9248713662524906 0.06955587529362217 -0.9279583767155447 0.07778852759042021 -0.9279583767155447 0.08663698977176254 C -0.9279583767155447 0.09548779343555563 -0.9248713662524906 0.10371810424990296 -0.9182859468597874 0.11236285745803104 L -0.7964555710206556 0.27514505891585117 C -0.7843149845135743 0.2911982625981172 -0.7777283943796458 0.3000467247794596 -0.7645575555942393 0.3000467247794596 Z M -0.7645575555942393 0.24818522997804332 C -0.7655854663901137 0.24818522997804332 -0.7659975673014439 0.24756942009349903 -0.7666157186684388 0.24674521827083895 L -0.8816546246592024 0.09198961865415173 C -0.8833009209703169 0.08993145557995225 -0.8837125535851569 0.08828305193463204 -0.8837125535851569 0.08663698977176254 C -0.8837125535851569 0.0849909276088931 -0.8833009209703169 0.08334486544602365 -0.8816546246592024 0.0810806519161591 L -0.7666157186684388 -0.07347006798608843 C -0.7659975673014439 -0.07429333321576823 -0.7655854663901137 -0.0749107821380281 -0.7645575555942393 -0.0749107821380281 C -0.7637333537715792 -0.0749107821380281 -0.7631175438870349 -0.07429333321576823 -0.7627054429757049 -0.07347006798608843 L -0.6476660686884512 0.0810806519161591 C -0.6460200065255817 0.08334486544602365 -0.6456079056142516 0.0849909276088931 -0.6456079056142516 0.08663698977176254 C -0.6456079056142516 0.08828305193463204 -0.6460200065255817 0.08993145557995225 -0.6476660686884512 0.09198961865415173 L -0.7627054429757049 0.24674521827083895 C -0.7631175438870349 0.24756942009349903 -0.7637333537715792 0.24818522997804332 -0.7645575555942393 0.24818522997804332 Z" fill="#ffffff" transform="matrix(1,0,0,1,0,0)" fill-rule="nonzero"></path></g></g><g transform="matrix(-0.45850120682456424,-0.888693784911551,-0.888693784911551,0.45850120682456424,5.2087574046420375,3.1737994531355898)"><g clip-path="url(#SvgjsClipPath1014)"><path d=" M 3.516260132994396 0.30004672477945943 C 3.529224921324137 0.30004672477945943 3.535811511458066 0.29119826259811704 3.547952097965147 0.275145058915851 L 3.6697817713595438 0.11236285745803087 C 3.676368361493472 0.1037181042499028 3.679454435363546 0.09548779343555547 3.679454435363546 0.08663698977176237 C 3.679454435363546 0.07778852759042004 3.676368361493472 0.069555875293622 3.6697817713595438 0.06091346356794464 L 3.547952097965147 -0.10186990863110093 C 3.535811511458066 -0.11792170742389646 3.529224921324137 -0.12677087204997406 3.516260132994396 -0.12677087204997406 C 3.5030892942089893 -0.12677087204997406 3.496502704075061 -0.11792170742389646 3.4843621175679793 -0.10186990863110093 L 3.362531741728848 0.06091346356794464 C 3.3559463223361448 0.069555875293622 3.3528593118730905 0.07778852759042004 3.3528593118730905 0.08663698977176237 C 3.3528593118730905 0.09548779343555547 3.3559463223361448 0.1037181042499028 3.362531741728848 0.11236285745803087 L 3.4843621175679793 0.275145058915851 C 3.496502704075061 0.29119826259811704 3.5030892942089893 0.30004672477945943 3.516260132994396 0.30004672477945943 Z M 3.516260132994396 0.24818522997804315 C 3.5152322221985215 0.24818522997804315 3.5148201212871912 0.24756942009349886 3.5142019699201965 0.24674521827083878 L 3.3991630639294326 0.09198961865415156 C 3.3975167676183182 0.08993145557995208 3.3971051350034784 0.08828305193463187 3.3971051350034784 0.08663698977176237 C 3.3971051350034784 0.08499092760889293 3.3975167676183182 0.08334486544602349 3.3991630639294326 0.08108065191615893 L 3.5142019699201965 -0.0734700679860886 C 3.5148201212871912 -0.07429333321576839 3.5152322221985215 -0.07491078213802826 3.516260132994396 -0.07491078213802826 C 3.517084334817056 -0.07491078213802826 3.5177001447016 -0.07429333321576839 3.5181122456129303 -0.0734700679860886 L 3.633151619900184 0.08108065191615893 C 3.6347976820630534 0.08334486544602349 3.6352097829743837 0.08499092760889293 3.6352097829743837 0.08663698977176237 C 3.6352097829743837 0.08828305193463187 3.6347976820630534 0.08993145557995208 3.633151619900184 0.09198961865415156 L 3.5181122456129303 0.24674521827083878 C 3.5177001447016 0.24756942009349886 3.517084334817056 0.24818522997804315 3.516260132994396 0.24818522997804315 Z" fill="#ffffff" transform="matrix(1,0,0,1,0,0)" fill-rule="nonzero"></path></g></g></g><defs><clipPath id="SvgjsClipPath1012"><path d=" M 0 0 h 2.7517025774001564 v 1.8018978035924924 h -2.7517025774001564 Z"></path></clipPath><clipPath id="SvgjsClipPath1004f49d4e10-b632-4369-94e2-44a2d0c51bb0"><path d=" M 0 1.2220014233400162e-16 L 2.7517025774001564 1.2220014233400162e-16 L 2.7517025774001564 1.8018978035924924 L 0 1.8018978035924924 Z"></path></clipPath><clipPath id="SvgjsClipPath1013"><path d=" M -1.0923650986976876 -0.2491713988658606 h 0.6556150862068966 v 0.6790299107142858 h -0.6556150862068966 Z"></path></clipPath><clipPath id="SvgjsClipPath1014"><path d=" M 3.1884525898909475 -0.24917139886586076 h 0.6556150862068966 v 0.6790299107142858 h -0.6556150862068966 Z"></path></clipPath></defs></svg>